<svg xmlns="http://www.w3.org/2000/svg" viewBox="0 0 480 480"><circle cx="240" cy="240" r="216" fill="#D7DBE0"/><circle cx="240" cy="240" r="176" fill="#FFF"/><path d="M72 248H40c-4.422 0-8-3.578-8-8s3.578-8 8-8h32c4.422 0 8 3.578 8 8s-3.578 8-8 8zM440 248h-32c-4.422 0-8-3.578-8-8s3.578-8 8-8h32c4.422 0 8 3.578 8 8s-3.578 8-8 8zM240 448c-4.422 0-8-3.578-8-8v-32c0-4.422 3.578-8 8-8s8 3.578 8 8v32c0 4.422-3.578 8-8 8zM240 80c-4.422 0-8-3.578-8-8V40c0-4.422 3.578-8 8-8s8 3.578 8 8v32c0 4.422-3.578 8-8 8z" fill="#5C546A"/><path d="M413.195 348c-1.36 0-2.734-.344-3.992-1.07l-20.78-12c-3.83-2.21-5.142-7.102-2.93-10.93 2.21-3.836 7.108-5.148 10.93-2.93l20.78 12c3.828 2.21 5.14 7.102 2.93 10.93-1.485 2.57-4.172 4-6.938 4zM87.57 160c-1.36 0-2.734-.344-3.992-1.07l-20.78-12c-3.83-2.21-5.142-7.102-2.93-10.93 2.21-3.836 7.108-5.14 10.93-2.93l20.78 12c3.828 2.21 5.14 7.102 2.93 10.93-1.485 2.57-4.172 4-6.938 4zM66.805 348c-2.766 0-5.453-1.43-6.938-4-2.21-3.828-.898-8.72 2.93-10.93l20.78-12c3.814-2.22 8.72-.906 10.93 2.93 2.212 3.828.9 8.72-2.93 10.93l-20.78 12c-1.258.726-2.633 1.07-3.992 1.07zM392.43 160c-2.766 0-5.453-1.43-6.938-4-2.21-3.828-.898-8.72 2.93-10.93l20.78-12c3.814-2.21 8.712-.906 10.93 2.93 2.212 3.828.9 8.72-2.93 10.93l-20.78 12c-1.258.726-2.633 1.07-3.992 1.07zM327.992 95.578c-1.36 0-2.734-.344-3.992-1.07-3.828-2.21-5.14-7.102-2.93-10.93l12-20.78c2.22-3.837 7.102-5.15 10.93-2.93 3.828 2.21 5.14 7.1 2.93 10.93l-12 20.78c-1.485 2.57-4.172 4-6.938 4zM139.992 421.203c-1.36 0-2.734-.344-3.992-1.07-3.828-2.21-5.14-7.102-2.93-10.93l12-20.78c2.21-3.837 7.11-5.15 10.93-2.93 3.828 2.21 5.14 7.1 2.93 10.93l-12 20.78c-1.485 2.57-4.172 4-6.938 4zM340.008 421.203c-2.766 0-5.453-1.43-6.938-4l-12-20.78c-2.21-3.83-.898-8.72 2.93-10.93 3.813-2.22 8.71-.907 10.93 2.93l12 20.78c2.21 3.828.898 8.72-2.93 10.93-1.258.726-2.633 1.07-3.992 1.07zM152.008 95.578c-2.766 0-5.453-1.43-6.938-4l-12-20.78c-2.21-3.83-.898-8.72 2.93-10.93 3.813-2.22 8.71-.907 10.93 2.93l12 20.78c2.21 3.828.898 8.72-2.93 10.93-1.258.726-2.633 1.07-3.992 1.07z" fill="#8A8895"/><path d="M336 260h-4v-84c0-6.617-5.383-12-12-12s-12 5.383-12 12v84h-42l33.07-79.383c1.242-2.96 1.25-6.22.023-9.188-1.22-2.97-3.523-5.274-6.477-6.51-6.094-2.546-13.133.368-15.695 6.462l-39.99 96c-1.556 3.71-1.15 7.922 1.085 11.273C240.25 282 243.977 284 248 284h60v20c0 6.617 5.383 12 12 12s12-5.383 12-12v-20h4c6.617 0 12-5.383 12-12s-5.383-12-12-12z" fill="#FF4F19"/><path d="M187.68 273.094C208.07 263.96 236 251.454 236 216c0-28.672-23.328-52-52-52s-52 23.328-52 52c0 6.617 5.383 12 12 12s12-5.383 12-12c0-15.438 12.563-28 28-28s28 12.563 28 28c0 19.898-15.063 26.648-34.133 35.195C157.43 260.352 132 271.742 132 304c0 6.617 5.383 12 12 12h80c6.617 0 12-5.383 12-12s-5.383-12-12-12h-64.863c4.375-7.23 13.52-12.176 28.543-18.906z" fill="#FF4F19"/><path d="M240 0C107.452 0 0 107.452 0 240s107.452 240 240 240 240-107.452 240-240S372.548 0 240 0zm0 440c-110.457 0-200-89.543-200-200S129.543 40 240 40s200 89.543 200 200-89.543 200-200 200z" fill="#FF4F19"/><g><path d="M40 240c0-110.457 89.543-200 200-200V0C107.452 0 0 107.452 0 240s107.452 240 240 240v-40c-110.457 0-200-89.543-200-200z" fill="#E7001E"/></g></svg>