<svg xmlns="http://www.w3.org/2000/svg" viewBox="0 0 512 512"><path d="M339.723 161.055l-32.416 32.06L256 129.408c32.102 0 61.407 11.956 83.723 31.648z" fill="#A0DDDF"/><path d="M307.308 318.884l32.416 32.06c-22.316 19.694-51.622 31.65-83.724 31.65l51.308-63.71z" fill="#20AAB0"/><path d="M339.723 161.055c26.286 23.196 42.87 57.13 42.87 94.945l-74.548 11.253-.736-85.39c11.876-5.275 22.795-12.32 32.413-20.808z" fill="#71CCCE"/><path d="M308.044 256h74.55c0 37.814-16.585 71.75-42.872 94.945-9.618-8.488-20.536-15.533-32.416-20.81l.738-74.135z" fill="#41BBBE"/><path d="M172.277 161.055l32.416 32.06L256 129.408c-32.102 0-61.407 11.956-83.723 31.648z" fill="#20AAB0"/><path d="M204.692 318.884l-32.416 32.06c22.316 19.694 51.622 31.65 83.724 31.65l-51.308-63.71z" fill="#06484A"/><path d="M172.277 161.055c-26.286 23.196-42.87 57.13-42.87 94.945l74.548 11.253.736-85.39c-11.876-5.275-22.795-12.32-32.413-20.808z" fill="#14858A"/><path d="M203.956 256h-74.55c0 37.814 16.585 71.75 42.872 94.945 9.618-8.488 20.536-15.533 32.416-20.81L203.956 256z" fill="#086063"/><path d="M204.692 181.864c-7.54 20.84-11.99 46.447-11.99 74.136l74.55 22.505v-85.802l-62.56-10.84z" fill="#20AAB0"/><path d="M192.703 256c0 27.69 4.448 53.3 11.99 74.136l62.56-10.84V256h-74.55z" fill="#14858A"/><path d="M204.692 330.136c11.5 31.778 30.196 52.457 51.308 52.457l11.253-30.57L256 319.297c-18.267 0-35.625 3.875-51.308 10.84z" fill="#086063"/><g fill="#41BBBE"><path d="M204.692 181.864c15.683 6.964 33.04 10.84 51.308 10.84l11.253-31.648L256 129.406c-21.112 0-39.808 20.68-51.308 52.458zM307.308 181.864L256 192.704V256l31.648 11.253L319.298 256c0-27.69-4.45-53.3-11.99-74.136z"/></g><path d="M256 256v63.297l51.308 10.84c7.54-20.84 11.99-46.447 11.99-74.136H256z" fill="#20AAB0"/><path d="M307.308 330.136c-15.683-6.964-33.04-10.84-51.308-10.84v63.297c21.112 0 39.81-20.68 51.308-52.457z" fill="#14858A"/><path d="M256 192.703c18.267 0 35.625-3.875 51.308-10.84-11.5-31.778-30.196-52.457-51.308-52.457v63.297z" fill="#71CCCE"/><g fill="#F7AD3F"><path d="M416.352 247.56c-4.66 0-8.44 3.778-8.44 8.44 0 4.662 3.78 8.44 8.44 8.44h67.517v-16.88H416.35zM95.648 247.56H28.132v16.88h67.516c4.66 0 8.44-3.78 8.44-8.44 0-4.662-3.78-8.44-8.44-8.44z"/></g><g fill="#F76720"><circle cx="483.868" cy="256" r="28.132"/><circle cx="28.132" cy="256" r="28.132"/></g><g fill="#F7AD3F"><path d="M363.418 136.647c-3.296 3.296-3.296 8.64 0 11.936 3.296 3.296 8.64 3.296 11.936 0l47.74-47.74-11.935-11.937-47.742 47.74zM136.647 363.418l-47.74 47.74 11.935 11.937 47.74-47.74c3.297-3.297 3.297-8.64 0-11.937-3.297-3.296-8.64-3.295-11.935 0z"/></g><g fill="#E4769A"><circle cx="417.128" cy="94.872" r="28.132"/><circle cx="94.872" cy="417.128" r="28.132"/></g><g fill="#F7AD3F"><path d="M375.353 363.418c-3.296-3.296-8.64-3.296-11.936 0-3.296 3.296-3.296 8.64 0 11.936l47.74 47.74 11.937-11.935-47.74-47.742zM148.582 136.647l-47.742-47.74-11.934 11.933 47.74 47.74c3.297 3.297 8.64 3.297 11.937 0 3.296-3.295 3.294-8.637 0-11.933z"/></g><g fill="#E4769A"><circle cx="417.128" cy="417.128" r="28.132"/><circle cx="94.872" cy="94.872" r="28.132"/></g><g fill="#F7AD3F"><path d="M247.56 95.648c0 4.66 3.778 8.44 8.44 8.44 4.662 0 8.44-3.78 8.44-8.44V28.132h-16.88v67.516zM247.56 416.352v67.517h16.88V416.35c0-4.66-3.78-8.44-8.44-8.44-4.662 0-8.44 3.78-8.44 8.44z"/></g><g fill="#F76720"><circle cx="256" cy="28.132" r="28.132"/><circle cx="256" cy="483.868" r="28.132"/></g></svg>