<svg xmlns="http://www.w3.org/2000/svg" viewBox="0 0 474.294 474.294"><circle cx="237.111" cy="236.966" r="236.966" fill="#3A5A98"/><path d="M404.742 69.754c92.54 92.54 92.545 242.586-.004 335.134-92.545 92.54-242.593 92.54-335.134 0L404.742 69.754z" fill="#345387"/><path d="M472.543 263.656L301.13 92.238l-89 88.998 5.303 5.302-50.67 50.667 41.473 41.474-5.455 5.45 44.902 44.902-51.764 51.764 88.43 88.43c99.717-20.18 176.69-102.97 188.195-205.57z" fill="#2E4D72"/><path d="M195.682 148.937v39.74h-29.115v48.6h29.115v144.4h59.808v-144.4h40.134s3.76-23.308 5.58-48.782h-45.486v-33.23c0-4.963 6.518-11.642 12.965-11.642h32.587V93.03h-44.306c-62.763-.002-61.282 48.64-61.282 55.907z" fill="#FFF"/></svg>