<svg xmlns="http://www.w3.org/2000/svg" viewBox="0 0 339.033 339.033"><path d="M169.516 0C76.044 0 0 76.045 0 169.517c0 93.47 76.044 169.516 169.516 169.516s169.516-76.044 169.516-169.516S262.99 0 169.516 0zm-26.15 17.224c-13.76 11.78-26.932 26.445-37.515 42.056-4.765 7.03-9.05 14.29-12.855 21.737H42.93c23.203-33.09 59.032-56.705 100.437-63.793zm18.65 227.372h-59.37c-8.935-19.363-15.105-41.7-16.14-66.79h75.51v66.79zM33.628 96.016H86.09c-8.754 21.294-13.708 43.834-14.594 66.79h-56.34c1.034-24.09 7.6-46.77 18.472-66.79zm-18.404 81.79H71.49c.863 23.318 5.768 45.652 14.643 66.79H34.51c-11.15-19.97-18.004-42.652-19.286-66.79zm28.826 81.79h49.157c3.75 7.15 7.968 14.15 12.67 20.988 12.48 18.143 25.89 31.638 37.22 41.18-40.628-7.03-75.868-29.977-99.047-62.168zm117.966 57.99c-16.754-12.268-36.477-31.837-51.588-57.99h51.588v57.99zm0-154.78h-75.51c.933-23.32 6.238-45.665 15.833-66.79h59.677v66.79zm0-81.79H109.99c2.556-4.5 5.31-8.943 8.276-13.32 15.442-22.78 32.37-37.696 43.75-46.15v59.47zm161.862 81.79h-56.34c-.887-22.956-5.84-45.496-14.595-66.79h52.46c10.873 20.02 17.44 42.7 18.475 66.79zm-27.774-81.79H246.04c-3.805-7.445-8.09-14.705-12.856-21.736-10.583-15.612-23.76-30.273-37.52-42.057 41.404 7.088 77.234 30.702 100.44 63.794zm-119.088-59.47c11.38 8.453 28.308 23.37 43.75 46.15 2.966 4.376 5.72 8.818 8.276 13.32h-52.026v-59.47zm0 74.47h59.678c9.595 21.125 14.9 43.47 15.834 66.79h-75.512v-66.79zm0 81.79h75.512c-1.035 25.09-7.206 47.428-16.14 66.79h-59.372v-66.79zm0 81.79h51.588c-15.11 26.152-34.834 45.722-51.588 57.99v-57.99zm18.924 62.167c11.327-9.54 24.738-23.038 37.215-41.178 4.703-6.838 8.922-13.84 12.67-20.988h49.158c-23.178 32.19-58.417 55.136-99.043 62.166zm108.583-77.167H252.9c8.876-21.14 13.78-43.472 14.644-66.79h56.265c-1.284 24.138-8.136 46.82-19.287 66.79z"/></svg>