<svg xmlns="http://www.w3.org/2000/svg" viewBox="0 0 296.999 296.999"><path d="M141.914 185.802c1.883 1.656 4.234 2.486 6.587 2.486 2.354 0 4.706-.83 6.588-2.486 2.385-2.1 58.39-52.02 58.39-103.793 0-35.843-29.147-65.003-64.976-65.003-35.83 0-64.98 29.16-64.98 65.002 0 51.77 56.007 101.69 58.392 103.792zM148.5 65.025c9.303 0 16.846 7.602 16.846 16.984 0 9.38-7.543 16.983-16.845 16.983-9.304 0-16.846-7.604-16.846-16.984 0-9.383 7.542-16.985 16.847-16.985z"/><path d="M273.357 185.773l-7.527-26.377c-1.222-4.28-5.133-7.232-9.583-7.232h-53.72c-1.94 2.887-3.99 5.785-6.157 8.7-15.057 20.23-30.364 33.913-32.06 35.41-4.37 3.847-9.984 5.966-15.81 5.966-5.82 0-11.433-2.117-15.81-5.97-1.694-1.493-17.003-15.18-32.06-35.407-2.166-2.914-4.215-5.813-6.157-8.7h-53.72c-4.45 0-8.36 2.952-9.583 7.233l-8.97 31.436 200.528 36.73 50.63-41.79zM296.617 267.29l-19.23-67.395-95.412 80.098h105.06c3.127 0 6.072-1.467 7.955-3.963 1.883-2.497 2.484-5.733 1.627-8.74zM48.793 209.888l-30.44-5.576-17.97 62.98c-.857 3.005-.256 6.24 1.628 8.737 1.884 2.495 4.83 3.962 7.956 3.962h38.827v-70.104zM62.746 212.445v67.547h97.527l48.584-40.785"/></svg>