<svg xmlns="http://www.w3.org/2000/svg" width="343.331" height="343.332" viewBox="0 0 343.331 343.332"><path d="M88.856 42.036c6.48-13.777 44.764-39.223 82.252-39.223 12.042 0 22.878 2.575 32.368 7.674-14.53 1.344-40.856 7.5-54.373 33.5-.79 1.527-.81 3.344-.04 4.88l12.973 25.94-26.324 24.127c-4.436-2.354-12.5-5.806-23.006-6.76-1.157-.108-2.26-.153-3.302-.153-7.782 0-13.223 2.728-16.685 5.807L67.442 75.583c4.95-5.803 13.807-17.39 21.413-33.547zM77.885 118.243L50.86 94.34l-12.976 14.705 27.96 23.82M343.217 247.772l-90.93-87.235-70.07-68.358-29.02 25.333 154.45 165.1c3.79 1.285 13.938-2.117 23.58-11.755 9.365-9.364 12.797-18.944 11.99-23.086zM325.212 299.53H40.987V230.45l13.15-9.144c1.923-1.344 2.76-3.78 2.057-6.027-.704-2.236-2.785-3.77-5.13-3.77H20.158c-2.35 0-4.422 1.533-5.13 3.77-.703 2.248.132 4.684 2.062 6.027l13.146 9.144v69.083H5.376c-2.972 0-5.376 2.405-5.376 5.377v30.235c0 2.977 2.404 5.376 5.375 5.376h319.837c2.97 0 5.374-2.4 5.374-5.376v-30.235c0-2.972-2.403-5.376-5.374-5.376z"/></svg>