<svg xmlns="http://www.w3.org/2000/svg" viewBox="0 0 186.178 186.178"><path d="M178.678 0H7.5C3.358 0 0 3.358 0 7.5v171.178c0 4.143 3.358 7.5 7.5 7.5h171.178c4.143 0 7.5-3.357 7.5-7.5V7.5c0-4.142-3.358-7.5-7.5-7.5zm-7.5 171.178H15V15h156.178v156.178z"/><path d="M49.613 136.56c.628 5.562 3.108 10.848 7.22 14.96 4.756 4.755 11.08 7.374 17.81 7.374h.002c6.73 0 13.053-2.618 17.808-7.372 4.76-4.76 7.383-11.087 7.383-17.816 0-5.333-1.646-10.412-4.694-14.656l23.905-23.91c4.247 3.05 9.326 4.695 14.658 4.695 6.73 0 13.056-2.62 17.814-7.38 4.755-4.755 7.374-11.08 7.374-17.81 0-6.73-2.62-13.058-7.38-17.817-4.073-4.072-9.3-6.576-14.948-7.208-.628-5.563-3.108-10.85-7.22-14.96-4.757-4.756-11.082-7.375-17.813-7.375-6.73 0-13.054 2.618-17.81 7.372-4.76 4.76-7.382 11.087-7.382 17.817 0 5.33 1.645 10.406 4.695 14.654L67.13 91.038c-4.246-3.05-9.326-4.694-14.657-4.694-6.73 0-13.057 2.62-17.814 7.38-4.757 4.755-7.376 11.08-7.375 17.81 0 6.73 2.62 13.058 7.38 17.817 4.073 4.073 9.3 6.577 14.948 7.21zm-4.347-32.23c1.925-1.926 4.485-2.986 7.208-2.986 2.725 0 5.287 1.062 7.21 2.985.443.442.86.95 1.238 1.512 1.253 1.855 3.27 3.053 5.5 3.267 2.227.21 4.435-.58 6.018-2.164l34.502-34.512c1.584-1.584 2.377-3.793 2.162-6.022-.215-2.23-1.415-4.246-3.272-5.498-.562-.38-1.055-.783-1.504-1.23-1.926-1.927-2.986-4.487-2.986-7.21 0-2.722 1.062-5.28 2.988-7.208 1.923-1.922 4.48-2.98 7.204-2.98 2.724 0 5.282 1.06 7.206 2.982 2.687 2.687 3.647 6.62 2.51 10.267-.833 2.662-.12 5.567 1.853 7.54 1.974 1.973 4.88 2.69 7.54 1.854.993-.31 2.026-.468 3.07-.468 2.722 0 5.277 1.056 7.194 2.973 1.926 1.926 2.986 4.487 2.986 7.212 0 2.722-1.06 5.28-2.982 7.202-1.924 1.925-4.483 2.985-7.206 2.985-2.725 0-5.286-1.06-7.213-2.99-.44-.44-.856-.948-1.235-1.508-1.254-1.855-3.27-3.053-5.5-3.267-2.224-.21-4.435.58-6.018 2.163l-34.503 34.512c-1.584 1.584-2.377 3.794-2.16 6.024.214 2.228 1.415 4.245 3.273 5.497.56.378 1.05.778 1.502 1.232 1.924 1.924 2.985 4.483 2.985 7.204 0 2.723-1.06 5.282-2.99 7.21-1.922 1.922-4.48 2.98-7.202 2.98-2.724 0-5.282-1.06-7.206-2.983-2.687-2.686-3.647-6.62-2.508-10.266.83-2.662.116-5.566-1.856-7.54-1.428-1.428-3.344-2.196-5.304-2.196-.747 0-1.5.11-2.235.34-.993.312-2.026.47-3.07.47-2.722 0-5.277-1.057-7.194-2.974-1.925-1.926-2.985-4.487-2.985-7.212 0-2.722 1.058-5.28 2.98-7.202z"/></svg>