<svg xmlns="http://www.w3.org/2000/svg" viewBox="0 0 451.179 451.179"><path d="M354.18 178.82c-7.39 0-14.59.834-21.51 2.407l11.948-11.955c12.498-12.523 12.49-32.878-.015-45.37-9.857-9.857-24.82-12.238-37.223-5.93-2.976 1.505-5.72 3.497-8.163 5.93l-59.677 59.695v-75.214c0-16.56-13.472-30.03-30.03-30.03-8.02 0-15.56 3.125-21.23 8.798-5.675 5.673-8.8 13.214-8.8 21.233v135.292l-54.618 54.636c-5.44-29.225-31.113-51.427-61.892-51.427-34.722 0-62.97 28.25-62.97 62.97 0 34.723 28.248 62.97 62.97 62.97 12.475 0 24.646-3.734 34.932-10.6 5.38 6.68 13.44 10.6 22.47 10.6h136.09c7.806 0 15.146-3.04 20.67-8.566 5.328-5.327 8.332-12.32 8.548-19.823 17.56 17.53 41.786 28.387 68.5 28.387 53.486 0 97-43.513 97-97s-43.515-97-97-97zm-162.7-70.436c0-4.813 1.876-9.34 5.283-12.747 3.405-3.406 7.933-5.282 12.746-5.282 9.94 0 18.03 8.088 18.03 18.03V195.6l-36.06 36.072V108.384zM12 309.854c0-28.105 22.865-50.97 50.97-50.97 27.903 0 50.63 22.54 50.955 50.366l-14.057 14.06c-7.58 7.58-10.282 18.094-7.47 28.145-8.558 6.062-18.86 9.367-29.43 9.367C34.866 360.824 12 337.96 12 309.854zm256.647 45.918c-3.26 3.258-7.587 5.052-12.188 5.052H120.37c-8.372 0-13.603-5.426-15.706-10.504-2.1-5.07-2.234-12.6 3.69-18.523l199.338-199.4c1.54-1.53 3.258-2.782 5.117-3.725 7.768-3.948 17.135-2.46 23.31 3.718 7.828 7.82 7.83 20.563.006 28.403l-31.87 31.89c-27.59 16.63-46.275 46.598-47.052 80.91-.017.74-.333 4.355-.516 5-1.707 6.034-4.76 11.654-8.94 16.375l-17.16 19.387H162.69c-3.313 0-6 2.687-6 6s2.687 6 6 6h93.24c9.625 0 17.593 7.59 17.762 16.91.08 4.733-1.713 9.175-5.045 12.507zm-2.712-39.696c-3.134-1.113-6.504-1.72-10.005-1.72h-9.316l10.12-11.434c1.142-1.29 2.215-2.638 3.226-4.028 1.46 5.96 3.468 11.708 5.975 17.182zm88.244 44.744c-46.87 0-85-38.13-85-85s38.13-85 85-85 85 38.13 85 85-38.132 85-85 85z"/></svg>