<svg xmlns="http://www.w3.org/2000/svg" width="45.001" height="45.001" viewBox="0 0 45.001 45.001"><path d="M42.73 21.94c-.525-8.072-6.996-14.56-15.197-15.314.066-.182.11-.375.11-.58 0-.942-.768-1.705-1.706-1.705-.94 0-1.707.764-1.707 1.706 0 .205.043.398.106.58C16.14 7.38 9.668 13.868 9.14 21.94H6.87c0 1.138.925 2.062 2.065 2.062h1.85c-2.143 1.083-5.094 3.995-5.094 3.995l6.772 6.84 2.418-1.445h13.78l9.39-9.39h4.888c1.14 0 2.063-.924 2.063-2.063h-2.27zm-14.886 6.99h-6.438c-.914 0-3.063-1.997-3.063-1.997h5.714c2.605 0 3.916-2.05 4.36-2.93h6.01c-2.357 1.33-6.583 4.926-6.583 4.926zM4.08 27.56l9.02 9.02-4.08 4.08L0 31.64l4.08-4.078z"/></svg>