<svg xmlns="http://www.w3.org/2000/svg" width="45.005" height="45.005" viewBox="0 0 45.005 45.005"><path d="M30.25 38.414l-7.4 2.664c-.113.04-.232.062-.35.062s-.237-.02-.35-.062l-7.697-2.77c2.616-2.812 5.43-5.64 8.047-8.45 2.648 2.844 5.1 5.707 7.75 8.556zM44.56 4.052c-.275-.192-.627-.24-.94-.126L22.5 11.53 1.378 3.926c-.315-.114-.667-.066-.94.126-.275.196-.438.51-.438.845v27.48c0 .436.272.823.68.97l11.284 4.063 9.297-8.654c-.976-1.05-1.952-2.1-2.93-3.148-2.062 1.48-5.118.917-6.956-1.352-1.976-2.395-3.682-6.674-2.03-8.427 1.752-1.653 6.033.055 8.426 2.03 2.27 1.84 2.832 4.893 1.352 6.956 1.062.99 2.315 1.944 3.378 2.935.996-.927 1.796-1.817 2.79-2.742-.84-1.435-.282-3.444 1.085-4.59 1.562-1.313 7.357-6.288 7.516-6.13.155.155-3.91 3.995-6.624 6.718l.453.452c2.897-2.54 6.99-6.35 7.147-6.195.154.156-3.783 4.122-6.408 6.936l.448.45c2.81-2.63 6.775-6.568 6.932-6.414.154.157-3.654 4.25-6.195 7.148l.45.45c2.724-2.716 6.56-6.784 6.716-6.627.157.157-6.116 7.51-6.124 7.52 0 0 1.332-1.563-.004-.004-1.275 1.493-3.182 1.945-4.59 1.084l-2.74 2.944c3.136 2.922 6.273 5.84 9.412 8.762l11.56-4.162c.41-.146.682-.534.682-.97V4.898c-.007-.335-.17-.65-.444-.845z"/></svg>