<svg xmlns="http://www.w3.org/2000/svg" viewBox="0 0 193.291 193.291"><path d="M187.992 32.878c-1.132-1.19-2.704-1.863-4.346-1.863h-.14c-6.42 0-12.408-2.564-16.868-7.23-4.528-4.734-6.844-10.946-6.52-17.49.08-1.642-.515-3.244-1.648-4.433C157.337.672 155.767 0 154.124 0H39.167c-1.643 0-3.213.673-4.346 1.863-1.132 1.19-1.727 2.792-1.646 4.432.323 6.544-1.993 12.756-6.52 17.492-4.46 4.664-10.448 7.23-16.87 7.23h-.11c-1.7-.01-3.236.666-4.375 1.862-1.14 1.196-1.736 2.81-1.647 4.46C5.72 75.614 20.137 146.653 93.47 192.38c.973.606 2.074.91 3.176.91s2.203-.304 3.175-.91c73.335-45.728 87.752-116.768 89.818-155.043.09-1.65-.506-3.265-1.646-4.462zm-91.346 147.3C34.116 139.513 19.062 78.828 16.033 42.47c7.32-1.296 14.016-4.87 19.292-10.39 5.27-5.508 8.61-12.596 9.582-20.08h103.478c.973 7.484 4.313 14.572 9.582 20.08 5.277 5.52 11.97 9.095 19.292 10.39-3.03 36.357-18.084 97.043-80.614 137.708z"/><path d="M100.757 27.368c-29.33-2.27-55.027 19.746-57.295 49.07-2.267 29.326 19.746 55.03 49.07 57.296 1.394.108 2.776.16 4.15.16 27.563 0 50.986-21.298 53.146-49.23 2.268-29.326-19.745-55.03-49.07-57.296zm37.108 56.37c-1.758 22.728-21.683 39.776-44.406 38.032-22.73-1.757-39.79-21.678-38.033-44.406 1.674-21.65 19.827-38.156 41.19-38.156 1.064 0 2.138.04 3.216.124 22.728 1.757 39.79 21.678 38.032 44.406z"/><path d="M116.557 63.8L88.14 88.137l-9.812-11.456c-2.156-2.517-5.943-2.81-8.46-.654-2.517 2.156-2.81 5.943-.654 8.46L82.93 100.5c1.186 1.386 2.867 2.097 4.56 2.097 1.38 0 2.768-.474 3.9-1.443l32.973-28.24c2.517-2.157 2.81-5.944.654-8.46-2.156-2.517-5.943-2.81-8.46-.655z"/></svg>