<svg xmlns="http://www.w3.org/2000/svg" width="32" height="32" viewBox="0 0 32 32"><path d="M16.368 27.72h-3.423l.442 2.492h3.35l1.077 1.614H5.704l1.075-1.614h3.15l.44-2.49H6.88v-2.118h7.784l1.695-7.66 2.07.46-2.053 9.262-.01-.002v.057zM13.643 13.76c1.784 0 3.23-1.446 3.23-3.23 0-1.783-1.446-3.23-3.23-3.23s-3.23 1.447-3.23 3.23 1.446 3.23 3.23 3.23zM7.26 24.795H13.85l1.877-9.176c.187-.913.11-1.354-.497-1.357-.605-.005-3.028 0-3.028 0h-.005s-2.62 5.522-4.942 5.374c-1.263.02-1.227 1.31 1.332 1.396.59.02 1.18-.3 1.74-.8l-.438 1.59c-1.64-.003-3.746.007-4.22.073-.662.092-3.67 4.98-4.71 6.693H0v1.458h4.7V28.59h-.077l2.636-3.795zM28.574 7.232c1.892 0 3.425-1.58 3.425-3.53C32 1.755 30.467.175 28.575.175s-3.425 1.58-3.425 3.53c0 1.948 1.534 3.528 3.425 3.528zm2.252 1.515c1.38 1.122.384 8.174.135 10.25-.08.663-.54.98-1.146 1.1v11.656H24.68v-1.57h1.51l-.518-5.34.586-5.428c-.284-.244.035-7.572.064-8.3.02-.48-2.693-.146-4.556.14l.633 2.808-2.66.6-1.56-6.908.32-.072-.128-.57.157-.035-.042-.188.502-.112-.055-.246c-.07-.006-.125-.06-.125-.125 0-.048.03-.083.07-.105l-.062-.285.836-.188.173.762.442-.1.04.185.146-.03.13.565.256-.057.534 2.365c2.145-.114 3.954-.52 4.992-.917 1.07-.3 3.22-.863 4.46.144zm-10.513 5.35L18.96 8.09l-.338.075 1.354 6.007.338-.076zm-.54.708l.097.424 2.66-.605-.097-.424-2.658.605zm-2.65-7.863l-.028-.132-1.988.428.028.132 1.99-.428zm1.36-.568l-.01-.134-2.738.2.01.134 2.738-.2zM16.25 7.917l2.31-1.22-.063-.117-2.31 1.22.063.117z"/></svg>