<svg xmlns="http://www.w3.org/2000/svg" viewBox="0 0 463.02 463.02" width="512" height="512"><path d="M207.626 168.59c-8.325-17.185-15.836-48.896-44.21-48.896-28.373 0-48.4 23.367 4.174 67.595l40.036-18.7z" fill="#0071CE"/><path d="M444.862 303.045c0-35.48-28.762-64.242-64.242-64.242-34.56 0-113.95-23.638-155.737-65.423-41.786-41.786-64.768 4.357-91.928 4.357-27.16 0-50.142-20.985-85.66-20.985-35.52 0-34.474 51.28-34.474 92.02v54.273h432.042z" fill="#454F58"/><path d="M224.882 173.38c-41.786-41.786-64.768 4.357-91.928 4.357-27.16 0-50.142-20.985-85.66-20.985-27.654 0-33.143 31.085-34.218 64.078 26.574 3.768 84.78 26.672 105.105 82.215h125.002c-14.686-59.25 17.115-72.73 43.827-60.756 21.454 9.617 40.714-2.11 42.402-12.51-35.872-10.456-77.86-29.73-104.53-56.4z" fill="#C3C6C8"/><path d="M132.955 177.738c-27.16 0-50.142-20.985-85.66-20.985-12.556 0-20.53 6.42-25.61 16.504 30.034 5.918 64.412 35.633 108.865 33.708 24.48-1.06 57.64-33.992 93.814-34.09-41.456-40.884-64.363 4.863-91.41 4.863z" fill="#00B3E3"/><path d="M437.108 297.346h-35.8c-66.147 0-265.817-16.922-326.298-16.922H21.82c-8.438 0-14.32 6.905-14.32 15.344v32.215c0 8.438 5.882 15.343 14.32 15.343h415.287c10.127 0 18.412-8.286 18.412-18.412v-9.156c0-10.126-8.285-18.412-18.412-18.412z" fill="#E8E8E8"/><path d="M389.62 297.204c-29.315-.63-74.752-3.306-122.726-6.345 2.492 7.87 3.945 15.983 1.783 21.015-2.956 6.88-16.243 20.59-27.504 31.45H383.97c4.412-13.59 7.73-30.13 5.65-46.12z" fill="#0071CE"/><g fill="#0071CE"><path d="M173.246 241.367h-57c-4.142 0-7.5-3.358-7.5-7.5 0-4.142 3.358-7.5 7.5-7.5h57c4.142 0 7.5 3.358 7.5 7.5 0 4.143-3.358 7.5-7.5 7.5zM188.51 264.21h-57c-4.142 0-7.5-3.357-7.5-7.5 0-4.14 3.358-7.5 7.5-7.5h57c4.142 0 7.5 3.36 7.5 7.5 0 4.143-3.358 7.5-7.5 7.5z"/></g><path d="M106.677 319.375H56.01c-4.142 0-7.5-3.358-7.5-7.5 0-4.142 3.358-7.5 7.5-7.5h50.667c4.142 0 7.5 3.358 7.5 7.5 0 4.142-3.358 7.5-7.5 7.5z" fill="#00B3E3"/><path d="M265.343 229.946c4.142 0 7.5-3.358 7.5-7.5 0-4.142-3.358-7.5-7.5-7.5-4.142 0-7.5 3.358-7.5 7.5 0 4.142 3.36 7.5 7.5 7.5zm186.496 64.512c-4.27-35.73-34.783-63.156-71.22-63.156-30.436 0-108.923-21.715-150.435-63.226-7.518-7.518-14.624-12.482-21.33-15.54-7.202-17.065-18.36-40.344-45.44-40.343-16.346 0-29.022 6.592-33.907 17.634-3.502 7.917-4.23 20.874 9.776 39.33-2.165.678-4.28 1.08-6.33 1.08-11.267 0-21.925-4.14-34.267-8.932-14.55-5.65-31.04-12.054-51.394-12.054-19.043 0-31.65 11.754-37.473 34.934-4.53 18.04-4.515 40.967-4.5 61.194v35.295c-3.324 4-5.32 9.256-5.32 15.094v32.216c0 12.81 9.585 22.843 21.82 22.843H437.11c14.288 0 25.912-11.624 25.912-25.91v-9.158c0-8.818-4.432-16.618-11.18-21.3zm-308.614-158.56c2.375-5.37 10.11-8.704 20.19-8.704 13.175 0 20.666 8.597 27.052 21.232-13.7.063-25.332 6.913-35.03 12.627-.79.465-1.573.925-2.353 1.38-8.944-10.972-12.533-20.492-9.86-26.536zM24.37 187.84c5.25-20.906 15.01-23.587 22.924-23.587 17.543 0 31.992 5.61 45.964 11.037 13.175 5.116 25.62 9.95 39.696 9.95 10.99 0 20.704-5.726 30.1-11.262 17.494-10.31 32.605-19.213 56.525 4.707 45.023 45.023 127.51 67.62 161.04 67.62 26.602 0 49.204 18.48 55.183 43.542H401.31c-33.573 0-102.526-4.438-169.206-8.73-65.46-4.212-127.288-8.192-157.093-8.192H21.82c-.504 0-1.003.023-1.5.057v-27.61c-.014-19.358-.03-41.296 4.05-57.532zm213.763 147.986H21.82c-4.685 0-6.82-4.065-6.82-7.843v-32.216c0-3.778 2.134-7.844 6.82-7.844h53.19c29.323 0 90.918 3.964 156.13 8.162 9.982.643 20.013 1.288 29.972 1.922 1.81 7.523.914 10.352.676 10.907-.684 1.59-4.395 8.13-23.655 26.912zm140.277 0H259.243c13.322-14.02 15.5-19.068 16.325-20.99 1.77-4.115 2.115-9.353 1.044-15.85 40.62 2.545 78.886 4.75 106.088 5.544.357 9.51-1.077 19.992-4.29 31.296zm69.61-10.91c0 6.016-4.896 10.91-10.912 10.91h-43.163c2.78-10.968 4.046-21.338 3.778-30.996 1.232.01 2.433.016 3.585.016h35.8c6.017 0 10.912 4.895 10.912 10.912v9.157zM217.487 200.568c4.143 0 7.5-3.36 7.5-7.5 0-4.143-3.357-7.5-7.5-7.5-4.142 0-7.5 3.357-7.5 7.5 0 4.14 3.358 7.5 7.5 7.5zm22.686 15.72c4.142 0 7.5-3.36 7.5-7.5 0-4.143-3.358-7.5-7.5-7.5-4.143 0-7.5 3.357-7.5 7.5 0 4.14 3.358 7.5 7.5 7.5z"/></svg>