<svg xmlns="http://www.w3.org/2000/svg" viewBox="0 0 297 297"><circle cx="148.5" cy="148.5" r="148.5" fill="#4F2B4F"/><path d="M184.266 45.013l-44.074 212.992 36.297 36.35c65.772-12.547 116.15-68.47 120.232-136.872L184.266 45.013z" fill="#462147"/><path d="M148.5 260.725c7.757 0 14.045-6.288 14.045-14.045v-54.62h-28.09v54.62c0 7.756 6.288 14.045 14.045 14.045z" fill="#F9B65F"/><path d="M148.667 192.058v68.658c7.68-.09 13.878-6.336 13.878-14.037v-54.622h-13.878z" fill="#FFA800"/><path d="M97 81.775c0-28.736 23.535-51.974 52.38-51.493 28.238.472 50.62 24.1 50.62 52.34v105.622c0 7.565-6.133 13.698-13.698 13.698H110.7c-7.566 0-13.7-6.133-13.7-13.698V81.774z" fill="#D95459"/><path d="M149.38 30.283c-.24-.004-.475.007-.713.006V201.94h37.635c7.565 0 13.698-6.133 13.698-13.698V82.624c0-28.243-22.382-51.87-50.62-52.34z" fill="#B23F47"/></svg>