<svg xmlns="http://www.w3.org/2000/svg" viewBox="0 0 490 490"><path d="M60.44 233.482l-11.545-37.267-11.544 37.267H0l30.22 23.03-11.544 37.273 30.22-23.04 30.22 23.04-11.545-37.272 30.22-23.03M158.492 233.482l-11.544-37.267-11.545 37.267h-37.35l30.22 23.03-11.545 37.273 30.22-23.04 30.22 23.04-11.545-37.272 30.22-23.03M256.544 233.482L245 196.215l-11.544 37.267h-37.352l30.22 23.03-11.544 37.273 30.22-23.04 30.22 23.04-11.544-37.272 30.22-23.03M354.596 233.482l-11.544-37.267-11.544 37.267h-37.35l30.22 23.03-11.546 37.273 30.22-23.04 30.22 23.04-11.544-37.272 30.22-23.03M441.105 196.215l-11.545 37.267h-37.35l30.22 23.03-11.545 37.273 30.22-23.04 30.22 23.04-11.545-37.272 30.22-23.03h-37.35"/></svg>