<svg xmlns="http://www.w3.org/2000/svg" viewBox="0 0 496 496"><path fill="#E8E8E8" d="M31.2 188h433.6v284H31.2z"/><path fill="#F15249" d="M448 128H48l40-72h320"/><path fill="#D6D6D6" d="M56 200h384v264H56z"/><path fill="#E8E8E8" d="M56 264h384v200H56z"/><path fill="#3AC2F2" d="M56 280h384v184H56z"/><path fill="#009CC6" d="M56 280h384v184"/><g fill="#E8E8E8"><path d="M128 272h16v200h-16zM320 272h24v200h-24z"/></g><path fill="#50BB75" d="M344 280h96v192h-96z"/><path fill="#0AA06E" d="M344 472V280h96"/><path d="M232 350.4c0-8.8-5.6-16-13.6-18.4 6.4-2.4 10.4-8.8 10.4-16 0-9.6-7.2-16.8-16.8-16.8s-16.8 7.2-16.8 16.8c0 7.2 4 12.8 10.4 16-8 2.4-13.6 9.6-13.6 18.4v48.8c0 5.6 0 10.4 8 13.6V472h24v-59.2c8-3.2 8-8 8-13.6v-48.8z" fill="#007093"/><g fill="#FFC114"><path d="M48 56L0 128h48l40-72M448 56h-40l40 72h48M319.2 56l16.8 72h56l-25.6-72M129.6 56L104 128h56l16.8-72M221.6 56l-5.6 72h64l-5.6-72"/></g><path d="M0 128v81.6c0 14.4 9.6 25.6 24 25.6s24-11.2 24-25.6V128H0z" fill="#FCA12A"/><g fill="#C93131"><path d="M48 128v81.6c0 14.4 13.6 25.6 28 25.6s28-11.2 28-25.6V128H48zM160 128v81.6c0 14.4 12.8 25.6 28 25.6s28-11.2 28-25.6V128h-56z"/></g><g fill="#FCA12A"><path d="M104 128v81.6c0 14.4 12 25.6 28 25.6s28-11.2 28-25.6V128h-56zM496 128v81.6c0 14.4-9.6 25.6-24 25.6s-24-11.2-24-25.6V128h48z"/></g><g fill="#C93131"><path d="M448 128v81.6c0 14.4-13.6 25.6-28 25.6s-28-11.2-28-25.6V128h56zM336 128v81.6c0 14.4-12.8 25.6-28 25.6s-28-11.2-28-25.6V128h56z"/></g><g fill="#FCA12A"><path d="M392 128v81.6c0 14.4-12 25.6-28 25.6s-28-11.2-28-25.6V128h56zM216 128v81.6c0 14.4 13.6 25.6 32 25.6s32-11.2 32-25.6V128h-64z"/></g><path d="M486.4 468c0 6.4-4.8 12-11.2 12H20.8c-6.4 0-11.2-5.6-11.2-12s4.8-12 11.2-12h454.4c6.4 0 11.2 5.6 11.2 12z" fill="#A8A8A8"/><path fill="#D6D6D6" d="M448.8 56H47.2l8-32h385.6"/><path d="M450.4 24c0 5.6-4 8-9.6 8H55.2c-4.8 0-9.6-2.4-9.6-8s4-8 9.6-8h385.6c4.8 0 9.6 2.4 9.6 8z" fill="#E8E8E8"/><circle cx="378.4" cy="376" r="15.2" fill="#FFC114"/><path d="M388.8 364.8c5.6 5.6 5.6 15.2 0 21.6-5.6 5.6-15.2 5.6-21.6 0" fill="#FCA12A"/></svg>