<svg xmlns="http://www.w3.org/2000/svg" viewBox="0 0 506.884 506.884"><path d="M86.88 24.005c-19.524 0-37.684 5.683-53.08 15.358-4.984 43.472-.125 87.757 11.74 130.36 5.123 18.4 12.104 35.543 20.193 51.994 6.822 1.47 13.886 2.288 21.148 2.288 55.23 0 100-44.77 100-100s-44.77-100-100-100zM293.42 389.15c39.214 51.595 104.15 75.927 169.707 90.345 12.355-16.637 19.754-37.174 19.754-59.49 0-55.228-44.77-100-100-100-42.753 0-79.138 26.883-93.44 64.626 1.38 1.392 2.722 2.864 3.98 4.52z" fill="#5C546A"/><path d="M505.906 413.826c-2.483-11.09-10.19-20.315-20.04-25.986l-123.68-71.213c-15.228-8.773-34.587-6.223-47.024 6.223l-34.474 34.47c-5.73 5.73-14.885 6.367-21.215 1.31-20.058-16.027-39.72-33.65-58.64-52.573-18.927-18.924-36.547-38.583-52.578-58.642-5.058-6.33-4.42-15.487 1.31-21.216l34.472-34.474c12.466-12.466 15.016-31.746 6.22-47.024L118.192 19.544C111.506 7.914 99.568.617 85.933.032 74.584-.454 63.68 4.588 55.65 12.62L19.693 48.574c-25.86 25.86-26.266 73.2-1.133 133.3 24.195 57.85 69.344 121.532 127.133 179.317 57.79 57.79 121.47 102.938 179.32 127.13 29.602 12.378 56.102 18.562 78.47 18.562 23.046 0 41.71-6.566 54.827-19.69l37.148-37.146c9.49-9.49 13.43-22.905 10.448-36.222z" fill="#FF4F19"/><path d="M487.25 458.257l8.21-8.21c8.647-8.647 12.687-20.558 11.077-32.683-1.602-12.12-8.602-22.574-19.195-28.676l-125.156-72.063c-15.227-8.773-34.586-6.223-47.023 6.223l-23.68 23.68 195.766 111.73zM160.96 214.8l23.077-23.076c12.445-12.44 15-31.777 6.22-47.023L118.192 19.545C112.1 8.947 101.646 1.947 89.52.344c-12.187-1.6-24.038 2.435-32.68 11.083l-8.234 8.235 112.354 195.14z" fill="#E7001E"/></svg>