<svg xmlns="http://www.w3.org/2000/svg" viewBox="0 0 437.053 437.053"><path d="M416.27 291.633l-180.724-113.19v-8.502c0-5.022 2.577-9.07 8.112-12.72.683-.455 1.488-.943 2.382-1.488 8.78-5.38 27.052-16.574 27.052-41.805 0-26.207-21.598-46.317-42.488-50.625-21.996-4.568-41.943.788-54.933 15.046-11.842 12.957-15.167 23.752-15.866 41.277-.057 1.268-.09 4-.122 6.665-.033 3.682 7.234 6.674 16.208 6.674h3.25c8.975 0 16.266-2.975 16.283-6.657.008-3.04.033-6.096.057-6.674.496-12.087 3.747-19.2 16.086-21.695 7.673-1.544 15.956.602 20.81 5.357 2.202 2.146 3.364 5.87 3.04 9.714-.212 2.56-1.31 7.355-6.146 10.688l-15.485 10.543c-9.876 6.325-14.08 13.893-14.08 25.297v18.93l-178.9 112.768C-5.71 307.59-.222 335.48 2.096 343.64c2.12 7.438 11.77 31.7 46.9 31.7H390.29c24.825 0 40.53-16.142 45.105-32.156 4.74-16.744-.398-40.512-19.126-51.55zm-18.364 39.39c-.853 2.992-3.625 6.22-8.13 6.22H48.565c-4.73-.017-7.397-3.122-8.242-5.772-1.08-3.405.317-6.884 3.536-9.168l174.877-109.46 175.845 109.924c4.35 2.723 3.772 6.68 3.324 8.258z" fill="#010002"/></svg>