<svg xmlns="http://www.w3.org/2000/svg" viewBox="0 0 60 60"><path d="M60 6V0H0v6h2v48H0v6h60v-6h-2V6h2zm-4 48H4V6h52v48z"/><path d="M29 8H6v21h23V8zM9.293 15.293l4-4c.39-.39 1.023-.39 1.414 0s.39 1.023 0 1.414l-4 4c-.195.195-.45.293-.707.293s-.512-.098-.707-.293c-.39-.39-.39-1.023 0-1.414zm3.414 4.414l-2 2c-.195.195-.45.293-.707.293s-.512-.098-.707-.293c-.39-.39-.39-1.023 0-1.414l2-2c.39-.39 1.023-.39 1.414 0s.39 1.023 0 1.414zm2.003-1.997c-.19.18-.45.29-.71.29-.26 0-.52-.11-.71-.29-.18-.19-.29-.45-.29-.71s.11-.52.29-.71c.38-.37 1.04-.37 1.42 0 .18.19.29.45.29.71s-.11.52-.29.71zm4.997-5.003l-3 3c-.195.195-.45.293-.707.293s-.512-.098-.707-.293c-.39-.39-.39-1.023 0-1.414l3-3c.39-.39 1.023-.39 1.414 0s.39 1.023 0 1.414zM54 8H31v21h23V8zm-19.707 7.293l4-4c.39-.39 1.023-.39 1.414 0s.39 1.023 0 1.414l-4 4c-.195.195-.45.293-.707.293s-.512-.098-.707-.293c-.39-.39-.39-1.023 0-1.414zm3.414 4.414l-2 2c-.195.195-.45.293-.707.293s-.512-.098-.707-.293c-.39-.39-.39-1.023 0-1.414l2-2c.39-.39 1.023-.39 1.414 0s.39 1.023 0 1.414zm2.003-1.997c-.19.18-.45.29-.71.29-.26 0-.52-.11-.71-.29-.18-.19-.29-.45-.29-.71s.11-.52.29-.71c.38-.37 1.04-.37 1.42 0 .18.19.29.45.29.71s-.11.52-.29.71zm4.997-5.003l-3 3c-.195.195-.45.293-.707.293s-.512-.098-.707-.293c-.39-.39-.39-1.023 0-1.414l3-3c.39-.39 1.023-.39 1.414 0s.39 1.023 0 1.414zM29 31H6v21h23V31zM9.293 38.293l4-4c.39-.39 1.023-.39 1.414 0s.39 1.023 0 1.414l-4 4c-.195.195-.45.293-.707.293s-.512-.098-.707-.293c-.39-.39-.39-1.023 0-1.414zm3.414 4.414l-2 2c-.195.195-.45.293-.707.293s-.512-.098-.707-.293c-.39-.39-.39-1.023 0-1.414l2-2c.39-.39 1.023-.39 1.414 0s.39 1.023 0 1.414zm2.003-1.997c-.19.18-.45.29-.71.29-.26 0-.52-.11-.71-.29-.18-.19-.29-.45-.29-.71s.11-.52.29-.71c.38-.37 1.04-.37 1.42 0 .18.19.29.45.29.71s-.11.52-.29.71zm4.997-5.003l-3 3c-.195.195-.45.293-.707.293s-.512-.098-.707-.293c-.39-.39-.39-1.023 0-1.414l3-3c.39-.39 1.023-.39 1.414 0s.39 1.023 0 1.414zM54 31H31v21h23V31zm-19.707 7.293l4-4c.39-.39 1.023-.39 1.414 0s.39 1.023 0 1.414l-4 4c-.195.195-.45.293-.707.293s-.512-.098-.707-.293c-.39-.39-.39-1.023 0-1.414zm3.414 4.414l-2 2c-.195.195-.45.293-.707.293s-.512-.098-.707-.293c-.39-.39-.39-1.023 0-1.414l2-2c.39-.39 1.023-.39 1.414 0s.39 1.023 0 1.414zm2.003-1.997c-.19.18-.45.29-.71.29-.26 0-.52-.11-.71-.29-.18-.19-.29-.45-.29-.71s.11-.52.29-.71c.38-.37 1.04-.37 1.42 0 .18.19.29.45.29.71s-.11.52-.29.71zm4.997-5.003l-3 3c-.195.195-.45.293-.707.293s-.512-.098-.707-.293c-.39-.39-.39-1.023 0-1.414l3-3c.39-.39 1.023-.39 1.414 0s.39 1.023 0 1.414z"/></svg>