<svg xmlns="http://www.w3.org/2000/svg" viewBox="0 0 440 440"><path d="M382 137.5h-36.72c-.01-.02-.03-.04-.04-.06C318.4 96.81 272.33 70 220 70c-52.36 0-98.45 26.84-125.28 67.5H58c-32.03 0-58 25.97-58 58v49c0 32.04 25.97 58 58 58h36.72c.01.02.02.03.03.05C121.59 343.19 167.66 370 220 370c52.36 0 98.45-26.83 125.28-67.5H382c32.03 0 58-25.96 58-58v-49c0-32.03-25.97-58-58-58z" fill="#EFEFEF"/><path d="M345.24 137.44h-82.4c-19.98.56-36.17 16.76-36.17 36.73V266c0 19.98-16.19 36.17-36.23 36.55H94.75c-.01-.02-.02-.03-.03-.05H58c-32.03 0-58-25.96-58-58v-49c0-32.03 25.97-58 58-58h36.72C121.55 96.84 167.64 70 220 70c52.33 0 98.4 26.81 125.24 67.44z" fill="#3E81C8"/><path d="M360.502 207.004c-4.42 0-8 3.582-8 8v48c0 4.418 3.58 8 8 8 4.418 0 8-3.582 8-8v-48c0-4.418-3.582-8-8-8zM360.502 182.004c-4.42 0-8 3.582-8 8v2c0 4.418 3.58 8 8 8 4.418 0 8-3.582 8-8v-2c0-4.418-3.582-8-8-8zM323.502 196.004c4.418 0 8-3.582 8-8s-3.582-8-8-8h-39c-3.527 0-6.515 2.286-7.58 5.455-.893 1.29-1.42 2.855-1.42 4.544v72c0 4.418 3.58 8 8 8 4.418 0 8-3.582 8-8v-29h32c4.418 0 8-3.582 8-8s-3.582-8-8-8h-32v-21h32zM132.34 181.21c-4.305-.998-8.605 1.675-9.607 5.978l-9.208 39.542-9.208-39.542-.007.002c-.67-2.872-2.903-5.264-5.97-5.98-4.305-.997-8.604 1.676-9.606 5.98l-9.208 39.54-9.208-39.54c-1.002-4.305-5.304-6.98-9.606-5.98-4.303 1.004-6.98 5.305-5.977 9.607l17 73c.86 3.693 4.15 6.188 7.785 6.188.6 0 1.21-.068 1.82-.21 3.068-.715 5.3-3.107 5.97-5.98l.008.003 9.208-39.542 9.208 39.542c.86 3.693 4.15 6.188 7.785 6.188.6 0 1.21-.068 1.82-.21 3.067-.715 5.298-3.107 5.97-5.98l.007.003 17-73c1-4.307-1.675-8.607-5.978-9.61zM165.524 206.002c-4.418 0-8 3.582-8 8v48c0 4.418 3.582 8 8 8s8-3.582 8-8v-48c0-4.418-3.58-8-8-8zM165.524 181.002c-4.418 0-8 3.582-8 8v2c0 4.418 3.582 8 8 8s8-3.582 8-8v-2c0-4.418-3.58-8-8-8z" fill="#37495E"/></svg>