<svg xmlns="http://www.w3.org/2000/svg" viewBox="0 0 485 485"><path d="M152.5 364.8v72.7h-40v-55.6c9.9-5.2 21.5-10 35-14.4 0 0 1.9-1 5-2.7zM372.5 381.7v55.8h-40v-72.7c3.1 1.7 5 2.7 5 2.7 13.5 4.3 25.1 9.1 35 14.2z" fill="#31C0D8"/><path d="M97.5 467.5c0 5.5 4.5 10 10 10h-55v-25s.7-40.1 60-70.6v55.6h-5c-5.5 0-10 4.5-10 10v20zM432.5 452.5v25h-55c5.5 0 10-4.5 10-10v-20c0-5.5-4.5-10-10-10h-5v-55.8c59.8 30.4 60 70.8 60 70.8zM332.5 364.8v72.7h-180v-72.7c9.8-5.4 31.7-18 40-27.3 0 0 20.6 25 50 25s50-25 50-25c8.3 9.3 30.2 21.9 40 27.3z" fill="#AFB6BB"/><path d="M387.5 447.5v20c0 5.5-4.5 10-10 10h-270c-5.5 0-10-4.5-10-10v-20c0-5.5 4.5-10 10-10h270c5.5 0 10 4.5 10 10z" fill="#31C0D8"/><path fill="#FFD147" d="M282.5 19v83.5h-80v-95h80"/><path d="M362.5 102.5h-80V19c38.5 13 68.6 44.3 80 83.5zM202.5 19v83.5h-80v-.1C133.9 63.2 164 32 202.5 19z" fill="#FBB246"/><path d="M387.5 142.5h-290c0-11 9-40 20-40h250c11 0 20 29 20 40z" fill="#FFD248"/><path d="M352.5 167.5c16.6 0 30 6.2 30 20 0 12.8-15.8 27.6-31.3 29.7.9-6.4 1.3-13 1.3-19.7v-30zM132.5 197.5c0 6.7.4 13.3 1.3 19.7-15.5-2.1-31.3-16.9-31.3-29.7 0-13.8 13.4-20 30-20v30zM192.5 305.7c14.6 7.6 31.4 11.8 50 11.8s35.4-4.2 50-11.8v31.8s-20.6 25-50 25-50-25-50-25v-31.8z" fill="#EADECA"/><path d="M192.5 305.7c-32.1-16.6-53.3-49.4-58.7-88.5-.9-6.4-1.3-13-1.3-19.7v-55h220v55c0 6.7-.4 13.3-1.3 19.7-5.4 39.1-26.6 71.9-58.7 88.5-14.6 7.6-31.4 11.8-50 11.8s-35.4-4.2-50-11.8z" fill="#EADECA"/><g fill="#231F20"><path d="M375.935 375.033c-10.498-5.408-22.442-10.275-35.512-14.472-.767-.408-2.272-1.215-4.303-2.33-16.668-9.183-29.807-17.866-36.12-23.802v-24.286c30.385-17.372 51.163-48.543 57.804-86.695C375.017 218.517 390 202.36 390 187.5c0-15.043-11.308-25.026-30-27.094V150h35v-7.5c0-9.655-8.382-46.807-27.002-47.47-12.6-37.327-41.223-67.16-77.998-81.282V0h-95v13.748c-36.824 14.137-65.464 43.973-78.033 81.285C98.372 95.74 90 132.85 90 142.5v7.5h35v10.406c-18.692 2.068-30 12.05-30 27.094 0 14.86 14.983 31.02 32.196 35.948 6.647 38.167 27.43 69.335 57.804 86.696v24.285c-6.312 5.935-19.45 14.617-36.106 23.794-2.06 1.13-3.577 1.943-4.338 2.35-13.408 4.4-25.363 9.34-35.485 14.657-62.57 32.183-64.036 75.32-64.068 77.14L45 485h395v-32.537c-.01-1.837-.95-45.344-64.065-77.43zM365 386.345V430h-25v-53.782c9.01 3.058 17.38 6.448 25 10.127zm-205-17.14c9.754-5.51 23.203-13.622 32.24-21.17 8.645 8.14 26.783 21.965 50.26 21.965s41.615-13.826 50.26-21.966c9.034 7.546 22.48 15.656 32.24 21.17V430H160v-60.796zM242.5 325c15.08 0 29.324-2.595 42.5-7.7v17.31c-5.13 5.364-21.387 20.39-42.5 20.39-20.977 0-37.346-15.055-42.5-20.404v-17.298c13.182 5.108 27.424 7.702 42.5 7.702zM375 187.5c0 6.126-6.627 14.467-15.266 19.07.165-2.964.266-31.088.266-31.088 13.367 1.874 15 8.786 15 12.018zM352.045 95H290V29.958c28.457 12.58 50.807 36.006 62.045 65.042zM210 15h65v80h-65V15zm-15 14.956V95h-62.08C144.133 65.976 166.5 42.545 195 29.956zM117.67 110h249.66c3.443 1.314 9.473 14.23 11.758 25H105.912c2.285-10.77 8.315-23.686 11.757-25zM110 187.5c0-3.232 1.633-10.144 15-12.018 0 0 .1 28.126.266 31.088-8.64-4.604-15.266-12.944-15.266-19.07zm31.227 28.656c-.814-5.79-1.227-12.066-1.227-18.656V150h205v47.5c0 6.59-.413 12.866-1.23 18.674-5.158 37.347-25.1 67.55-54.733 82.874C275.075 306.315 259.417 310 242.5 310c-16.918 0-32.575-3.685-46.555-10.962-29.614-15.314-49.557-45.517-54.718-82.882zM145 376.25V430h-25v-43.49c7.426-3.642 15.798-7.08 25-10.26zm-85 76.38c.093-2.065 2.19-31.708 45-57.922V430.2c-8.466 1.22-15 8.502-15 17.3v20c0 .85.082 1.68.2 2.5H60v-17.37zM107.5 470c-1.355 0-2.5-1.145-2.5-2.5v-20c0-1.355 1.145-2.5 2.5-2.5h270c1.355 0 2.5 1.145 2.5 2.5v20c0 1.355-1.145 2.5-2.5 2.5h-270zm317.5 0h-30.2c.118-.82.2-1.65.2-2.5v-20c0-8.798-6.534-16.08-15-17.3v-35.764c43.444 26.306 44.95 56.392 45 58.136V470z"/><path d="M242.5 255h20v-15H250v-32.5h-15v40c0 4.142 3.358 7.5 7.5 7.5z"/></g></svg>